<svg id="visual" viewBox="0 0 900 600" width="900" height="600" xmlns="http://www.w3.org/2000/svg" xmlns:xlink="http://www.w3.org/1999/xlink" version="1.1"><rect width="900" height="600" fill="#fff"></rect><g><g transform="translate(651 489)"><path d="M76.1 -20.5C88.7 14.2 82.3 59.3 54.8 80.4C27.3 101.6 -21.2 98.8 -54.6 74.7C-87.9 50.6 -106.1 5.1 -94.4 -28.2C-82.8 -61.5 -41.4 -82.7 -4.8 -81.2C31.7 -79.6 63.4 -55.3 76.1 -20.5Z" fill="none" stroke="#8A4FFF" stroke-width="20"></path></g><g transform="translate(282 100)"><path d="M45.2 -10.2C53.9 12.1 53.1 42.1 35.4 56.9C17.6 71.7 -17 71.4 -35.2 56.4C-53.3 41.3 -54.9 11.5 -46.3 -10.8C-37.7 -33 -18.9 -47.7 -0.3 -47.6C18.2 -47.5 36.5 -32.6 45.2 -10.2Z" fill="none" stroke="#8A4FFF" stroke-width="20"></path></g><g transform="translate(390 443)"><path d="M43.7 -9.9C51.9 11.1 50.6 39.4 33.1 54.1C15.6 68.9 -18 70 -40.1 54.1C-62.3 38.3 -72.9 5.6 -64.3 -15.9C-55.7 -37.5 -27.8 -47.8 -5 -46.1C17.8 -44.5 35.5 -30.9 43.7 -9.9Z" fill="none" stroke="#8A4FFF" stroke-width="20"></path></g><g transform="translate(680 135)"><path d="M64.5 -21.6C74.5 9.5 67 45.7 43.3 63.9C19.6 82.2 -20.3 82.5 -48 63C-75.7 43.6 -91.2 4.5 -81.2 -26.8C-71.2 -58 -35.6 -81.3 -4.1 -80C27.3 -78.7 54.6 -52.6 64.5 -21.6Z" fill="none" stroke="#8A4FFF" stroke-width="20"></path></g><g transform="translate(64 463)"><path d="M44.2 -14.2C50.7 5.7 44.9 29.8 29.1 41.7C13.3 53.6 -12.6 53.3 -32.3 40C-52 26.7 -65.6 0.5 -59.2 -19.2C-52.8 -39 -26.4 -52.3 -3.8 -51C18.8 -49.8 37.6 -34.1 44.2 -14.2Z" fill="none" stroke="#8A4FFF" stroke-width="20"></path></g><g transform="translate(17 113)"><path d="M80.6 -27.8C88.4 -2.2 67.6 31.1 41.3 48.2C14.9 65.3 -16.9 66.2 -42.9 49.6C-69 32.9 -89.2 -1.3 -81 -27.4C-72.9 -53.5 -36.5 -71.5 0 -71.5C36.4 -71.5 72.8 -53.5 80.6 -27.8Z" fill="none" stroke="#8A4FFF" stroke-width="20"></path></g><g transform="translate(891 340)"><path d="M74.8 -24.1C85.5 8.6 74.9 48.5 48.6 67.8C22.3 87.2 -19.6 85.9 -41.6 67.5C-63.5 49.1 -65.5 13.6 -55.2 -18.5C-45 -50.5 -22.5 -79.2 4.8 -80.7C32.1 -82.3 64.1 -56.8 74.8 -24.1Z" fill="none" stroke="#8A4FFF" stroke-width="20"></path></g></g></svg>